<svg xmlns="http://www.w3.org/2000/svg" width="98.003" height="43.344" viewBox="0 0 98.003 43.344">
  <g id="logo" transform="translate(-79.003 -100.547)">
    <g id="fintek" transform="translate(79.002 100.547)">
      <g id="g20" transform="translate(7.08 3.793)">
        <path id="path22" d="M-2095.141-583.984a3.49,3.49,0,0,0,.738-.214,9.243,9.243,0,0,0,1.419-.715,14.919,14.919,0,0,0,1.92-1.413,22.123,22.123,0,0,0,3.155-3.331c.161-.21.308-.431.458-.65a.1.1,0,0,0-.027-.146.118.118,0,0,0-.08-.02,1.215,1.215,0,0,0-.246.088,20.547,20.547,0,0,0-2.434,1.6,52.387,52.387,0,0,0-4.4,3.687c-.194.181-.377.372-.564.561-.041.041-.072.092-.109.138a.3.3,0,0,0,0,.331.2.2,0,0,0,.17.083m-15.553,5.2a3.068,3.068,0,0,0,.968-.134,6.743,6.743,0,0,0,.836-.285,14.454,14.454,0,0,0,1.364-.63c.6-.316,1.194-.644,1.769-1q.9-.563,1.785-1.149c1.352-.9,2.661-1.854,3.953-2.836.141-.107.278-.219.414-.332a.414.414,0,0,0,.146-.309c.009-.177.016-.353.029-.529a1.112,1.112,0,0,1,.229-.567,1.537,1.537,0,0,1,.449-.421,3.4,3.4,0,0,1,.389-.209,3.063,3.063,0,0,1,.415-.149.83.83,0,0,0,.527-.44c.027-.052.064-.1.094-.15q2.682-4.377,5.726-8.51c.1-.143.2-.291.3-.438a.212.212,0,0,0-.123-.279c-.146-.014-.292-.033-.439-.04-.677-.033-1.356-.056-2.033-.1-.5-.029-1-.055-1.5-.057-1.357-.008-2.713-.021-4.07-.018-.648,0-1.3.011-1.945.055-1.353.09-2.711.109-4.06.271-.117.014-.235.016-.353.026-.147.012-.295.02-.44.04-.818.112-1.641.182-2.458.3a.758.758,0,0,0-.523.289c-.2.257-.4.509-.6.766-.716.938-1.392,1.9-2.065,2.872q-2.754,3.958-5.254,8.081c-.685,1.136-1.352,2.282-1.967,3.459-.177.34-.35.682-.521,1.025-.079.158-.149.32-.222.481-.047.1-.03.236.03.24a.422.422,0,0,0,.163-.007,4.159,4.159,0,0,0,.848-.471,22.1,22.1,0,0,0,1.782-1.308c1.476-1.178,2.883-2.437,4.274-3.712a5.79,5.79,0,0,0,.488-.512c.48-.561.989-1.094,1.517-1.609a20.752,20.752,0,0,1,3.608-2.839,17.932,17.932,0,0,1,3.494-1.695,10.1,10.1,0,0,1,2.407-.553,1.638,1.638,0,0,1,.527.023,3.679,3.679,0,0,1,1.947,1.151,1.614,1.614,0,0,1,.363.7,1.144,1.144,0,0,1,.017.525,3.015,3.015,0,0,1-.345.905,6.939,6.939,0,0,1-.724,1,13.912,13.912,0,0,1-1.645,1.6,22.582,22.582,0,0,1-4.982,3.178,11.389,11.389,0,0,1-3.8,1.129.456.456,0,0,0-.3.162,6.41,6.41,0,0,0-.828,1.251,4.91,4.91,0,0,0-.368.9,1.32,1.32,0,0,0-.052.437.424.424,0,0,0,.251.334,1.538,1.538,0,0,0,.513.079m10.057-11.332a.457.457,0,0,0-.341.028,15.766,15.766,0,0,0-2.378,1.343,25.346,25.346,0,0,0-3.289,2.66,23.825,23.825,0,0,0-2.05,2.187,2.5,2.5,0,0,0-.191.292c-.014.023-.024.067-.011.084a.139.139,0,0,0,.154.055,6.584,6.584,0,0,0,1.279-.587,17.737,17.737,0,0,0,1.925-1.245,29.494,29.494,0,0,0,2.97-2.5,19.256,19.256,0,0,0,1.681-1.809,2.491,2.491,0,0,0,.243-.365c.023-.042,0-.11-.007-.166a.165.165,0,0,0,.069,0c.011,0,.018-.052.013-.054-.051-.026-.074,0-.065.069m-26.834,1.987c-.013.026-.02.06-.041.078a2.792,2.792,0,0,1-.275.216c-1.342.862-2.621,1.811-3.869,2.8-1.433,1.138-2.819,2.331-4.139,3.6a27.681,27.681,0,0,0-2.691,2.931,4.929,4.929,0,0,0-.695,1.126,1.021,1.021,0,0,0-.083.431.377.377,0,0,0,.141.309c.094.07.188.139.278.213a.1.1,0,0,1,.035.072.161.161,0,0,1-.1.135,1.866,1.866,0,0,1-1.9-.368,3.458,3.458,0,0,1-.833-1.133,1.979,1.979,0,0,1-.13-1.54,12.474,12.474,0,0,1,.82-1.953,7.369,7.369,0,0,0,.511-1.027c.005-.017-.02-.054-.04-.067s-.065-.02-.079-.008c-.24.216-.48.432-.715.653-.965.913-1.951,1.8-2.977,2.643-.524.431-1.06.848-1.619,1.233a9.31,9.31,0,0,1-1.054.649c-.21.107-.426.2-.64.3a2.263,2.263,0,0,1-1.034.194,1.425,1.425,0,0,1-.754-.218,3.449,3.449,0,0,1-1.059-1.051,1.687,1.687,0,0,1-.245-.658.974.974,0,0,1-.009-.263,4.368,4.368,0,0,1,.24-1.031q.235-.621.523-1.218a29.978,29.978,0,0,1,1.553-2.778,50.167,50.167,0,0,1,3.029-4.357,26.7,26.7,0,0,1,1.961-2.279c.061-.062.109-.138.165-.205.037-.045-.021-.217-.076-.229a2.1,2.1,0,0,0-.259-.053,29.078,29.078,0,0,0-3.979-.085c-.265.015-.531.018-.8.031q-.928.044-1.852.144c-.7.076-1.4.179-2.108.257-.5.055-.992.142-1.488.219a2.41,2.41,0,0,0-.342.089.449.449,0,0,0-.22.141c-.113.136-.229.269-.34.408-2.411,3.022-4.707,6.129-6.861,9.339-.9,1.347-1.774,2.715-2.591,4.118-.46.79-.9,1.591-1.3,2.413a14.613,14.613,0,0,0-.627,1.462,6.662,6.662,0,0,0-.261.936.913.913,0,0,0,.01.262c.006.065.131.157.193.156a1.6,1.6,0,0,0,.678-.174c.238-.116.466-.255.694-.389.355-.209.708-.423,1.062-.636.065-.039.118-.033.148.031a.094.094,0,0,1,0,.082,10.341,10.341,0,0,1-.979,1.136,7.126,7.126,0,0,1-1.242.992,3.446,3.446,0,0,1-.8.378,1.153,1.153,0,0,1-.861-.06,1.573,1.573,0,0,1-.655-.577,1.723,1.723,0,0,1-.288-.917,7.162,7.162,0,0,1,.134-1.583,18.225,18.225,0,0,1,.875-2.965c.41-1.075.875-2.126,1.382-3.159.859-1.748,1.8-3.448,2.814-5.113.826-1.362,1.681-2.706,2.581-4.02.1-.146.2-.295.293-.443a.33.33,0,0,0,.067-.247c-.01-.049-.141-.071-.242-.037-.448.147-.9.289-1.343.447a31.971,31.971,0,0,0-3.026,1.243,17.321,17.321,0,0,0-1.635.882,7.551,7.551,0,0,0-1.008.718,4.892,4.892,0,0,0-.443.431,1.393,1.393,0,0,0-.4.867.641.641,0,0,1-.052.167.406.406,0,0,1-.3.157.652.652,0,0,1-.33-.113,1.476,1.476,0,0,1-.2-.17,3.827,3.827,0,0,1-.956-1.47,1.455,1.455,0,0,1-.045-.784,2.62,2.62,0,0,1,.527-1.108,4.241,4.241,0,0,1,.625-.625,8.218,8.218,0,0,1,1.409-.912,17.975,17.975,0,0,1,2.525-1.063,35.806,35.806,0,0,1,3.745-1.051c.978-.221,1.958-.43,2.95-.581a3.073,3.073,0,0,0,.43-.1.544.544,0,0,0,.288-.2c.1-.142.216-.281.323-.422,1.051-1.388,2.136-2.748,3.273-4.067a63.258,63.258,0,0,1,4.707-4.923,25.468,25.468,0,0,1,1.958-1.657,10.112,10.112,0,0,1,1.023-.7,5.273,5.273,0,0,1,.714-.349,2.244,2.244,0,0,1,.952-.152,2.774,2.774,0,0,1,1.181.338,3.714,3.714,0,0,1,1.9,2.331,2.883,2.883,0,0,1,.1.874.1.1,0,0,1-.1.114.149.149,0,0,1-.149-.073c-.085-.12-.173-.238-.258-.358a.989.989,0,0,0-1.187-.322,3.09,3.09,0,0,0-.478.228,8.391,8.391,0,0,0-.956.638c-.424.321-.828.664-1.224,1.019-.878.789-1.716,1.62-2.531,2.473q-1.9,1.984-3.636,4.107c-.073.09-.132.193-.2.291a.146.146,0,0,0,.094.2c.117.006.235.018.352.014,1.239-.043,2.478-.018,3.717.024.442.015.883.046,1.323.1.645.075,1.292.125,1.931.245a13.429,13.429,0,0,1,1.467.327c.2.06.4.115.587.193a1.749,1.749,0,0,0,.855.16,1.41,1.41,0,0,1,.843.222,4.219,4.219,0,0,1,1.556,1.536,3.338,3.338,0,0,1,.217.483.953.953,0,0,1,.049.436.324.324,0,0,1-.306.263.3.3,0,0,1-.088-.008.913.913,0,0,0-.976.231,6.6,6.6,0,0,0-.885.865c-.325.381-.65.765-.952,1.164a47.658,47.658,0,0,0-3.952,6.18c-.056.1-.094.216-.148.32-.035.068-.032.122.037.147a.256.256,0,0,0,.163.013,1.818,1.818,0,0,0,.315-.16c.349-.221.7-.441,1.039-.675.706-.484,1.383-1.008,2.045-1.549,1.828-1.495,3.572-3.085,5.29-4.7a4.578,4.578,0,0,0,.572-.673c.569-.79,1.159-1.564,1.789-2.307.381-.45.775-.89,1.174-1.324a9.212,9.212,0,0,1,1.035-.965,1.233,1.233,0,0,1,.559-.251.853.853,0,0,1,.263-.009,2.13,2.13,0,0,1,.83.289,4.1,4.1,0,0,1,1.461,1.508,1.983,1.983,0,0,1,.227.756.511.511,0,0,1,0,.088.344.344,0,0,1-.3.271c-.117-.008-.234-.038-.351-.036a.617.617,0,0,0-.253.061,1.841,1.841,0,0,0-.494.369c-.292.292-.59.58-.862.89-.408.465-.812.937-1.191,1.426-.615.792-1.21,1.6-1.811,2.4a.964.964,0,0,0-.132.228.473.473,0,0,0,0,.17.124.124,0,0,0-.135.009,1.068,1.068,0,0,0-.111.094.09.09,0,0,0-.01-.025.315.315,0,0,0,.078.028c.1.008.118-.009.164-.124.056-.011.126,0,.166-.036.228-.187.451-.379.671-.575q2.842-2.534,5.9-4.808c.758-.562,1.528-1.109,2.322-1.62a13.715,13.715,0,0,1,1.69-.963,2.482,2.482,0,0,1,.587-.189,1.138,1.138,0,0,1,.845.177,2.311,2.311,0,0,1,.282.212,3.652,3.652,0,0,1,.923,1.283,1.584,1.584,0,0,1,.135.689.683.683,0,0,1-.185.484,18.357,18.357,0,0,0-1.44,1.678c-1.366,1.742-2.656,3.538-3.842,5.407a18.445,18.445,0,0,0-1.216,2.156,1.639,1.639,0,0,0-.082.248.144.144,0,0,0,.008.085.1.1,0,0,0,.139.066,2.906,2.906,0,0,0,.324-.135,14.16,14.16,0,0,0,1.633-1.058c.522-.386,1.04-.778,1.546-1.183,1.106-.885,2.169-1.82,3.227-2.763a2.745,2.745,0,0,0,.549-.686c.932-1.608,1.916-3.184,2.927-4.743,1.091-1.683,2.208-3.348,3.393-4.968a1.163,1.163,0,0,0,.266-.453.1.1,0,0,0-.011-.072.106.106,0,0,0-.078-.037c-.115.021-.23.046-.343.076a10.3,10.3,0,0,0-1.655.618,6.138,6.138,0,0,0-1.429.876,1.4,1.4,0,0,0-.394.47.285.285,0,0,0,.04.248c.042.04.085.08.132.116.093.072.19.139.28.213.015.013.014.055.008.082s-.024.053-.043.058a2.229,2.229,0,0,1-.876,0,.486.486,0,0,1-.086-.02,2.741,2.741,0,0,1-1.639-1.395,1.759,1.759,0,0,1-.135-1.121.941.941,0,0,1,.092-.247,2.011,2.011,0,0,1,.57-.668,5.176,5.176,0,0,1,1.067-.623,11.873,11.873,0,0,1,1.923-.659,26.85,26.85,0,0,1,2.771-.573c.5-.075.99-.162,1.49-.208a1.605,1.605,0,0,0,.26-.051.575.575,0,0,0,.3-.17c.115-.135.224-.274.335-.412.719-.9,1.431-1.8,2.16-2.691.392-.479.809-.938,1.222-1.4a9.423,9.423,0,0,1,1.027-.972,7.571,7.571,0,0,1,.864-.616,1.9,1.9,0,0,1,1.187-.273,3.944,3.944,0,0,1,2.811,1.489,1.015,1.015,0,0,1,.127.23.369.369,0,0,1,.011.258.309.309,0,0,1-.259.2,1.433,1.433,0,0,1-.26-.051.73.73,0,0,0-.516.035,2.3,2.3,0,0,0-.469.247,5.156,5.156,0,0,0-.819.673c-.289.295-.577.591-.853.9-.493.549-.954,1.124-1.407,1.707a2.542,2.542,0,0,0-.139.224c-.037.06.032.189.1.205a1.877,1.877,0,0,0,.528.018c1.3-.039,2.6-.036,3.894-.031.856,0,1.711.017,2.566.034.413.008.825.036,1.238.057.383.019.766.042,1.149.058.766.031,1.533.06,2.3.15.264.031.53.036.794.058.294.024.587.054.881.083.088.009.175.029.263.036.912.07,1.817.206,2.724.321a.406.406,0,0,0,.385-.168c.109-.139.219-.278.327-.418.289-.373.575-.749.868-1.119.6-.763,1.221-1.516,1.871-2.242a21.734,21.734,0,0,1,1.539-1.588c.175-.159.348-.32.534-.465.209-.162.43-.311.65-.458a2.283,2.283,0,0,1,1.866-.3,4.3,4.3,0,0,1,2.192,1.26,2.861,2.861,0,0,1,.317.423.5.5,0,0,1,.063.339.277.277,0,0,1-.248.213.907.907,0,0,1-.261-.032,1.119,1.119,0,0,0-.934.129,3.371,3.371,0,0,0-.522.332,9.547,9.547,0,0,0-.742.629,30.923,30.923,0,0,0-2.581,2.794c-.708.869-1.4,1.748-2.1,2.627-.715.9-1.4,1.827-2.069,2.761-.946,1.318-1.862,2.657-2.762,4.007-.114.172-.225.346-.329.524a.256.256,0,0,0,0,.25.194.194,0,0,0-.07-.023c-.015,0-.043.032-.042.035.025.038.057.026.093-.033a1.477,1.477,0,0,0,.228-.129c.274-.224.542-.455.814-.682a31.749,31.749,0,0,1,2.975-2.223c.444-.291.9-.567,1.369-.812a8.835,8.835,0,0,1,1.05-.466,3.226,3.226,0,0,1,.862-.184,1.322,1.322,0,0,1,.987.309,3.774,3.774,0,0,1,1.162,1.742,1.7,1.7,0,0,1,.084.7,1.893,1.893,0,0,1-.059.347,3.611,3.611,0,0,1-.388.888,7.035,7.035,0,0,1-.93,1.178,11.629,11.629,0,0,1-1.249,1.124,20.037,20.037,0,0,1-5.711,3.136,11.174,11.174,0,0,1-2.576.611c-.205.021-.409.053-.614.081-.166.023-.23.159-.156.328.023.054.042.11.068.163a16.921,16.921,0,0,0,1.045,1.845,19.823,19.823,0,0,0,3.922,4.414,13.71,13.71,0,0,0,2.19,1.491,9.44,9.44,0,0,0,2.213.877,6.467,6.467,0,0,0,2.893.083,5.918,5.918,0,0,0,1.883-.744c.228-.137.443-.292.672-.426a.536.536,0,0,1,.427-.047.288.288,0,0,1,.181.418,1.189,1.189,0,0,1-.159.21,7.844,7.844,0,0,1-3.79,1.987,9.992,9.992,0,0,1-2.026.122,11.009,11.009,0,0,1-4.218-1.225,15.294,15.294,0,0,1-1.822-1.086,20.823,20.823,0,0,1-3.158-2.694,23.759,23.759,0,0,1-2.559-3.157c-.082-.121-.177-.234-.266-.35-.042-.055-.182-.037-.23.027a.79.79,0,0,0-.059.065c-.339.587-.685,1.17-1.011,1.764-.142.257-.244.536-.36.807a1.66,1.66,0,0,0-.116.516,1.577,1.577,0,0,0,0,.177.388.388,0,0,0,.245.335c.227.06.455.115.682.174.021.005.049.034.049.052a.119.119,0,0,1-.036.079.521.521,0,0,1-.139.1c-.162.069-.327.135-.494.192a1.192,1.192,0,0,1-.7.014,2.339,2.339,0,0,1-1.066-.6,5.644,5.644,0,0,1-.851-1.014,1.141,1.141,0,0,1-.183-.582,4.394,4.394,0,0,1,.123-1.14,11.669,11.669,0,0,1,.668-1.918c.129-.3.277-.586.413-.88.062-.133.118-.269.172-.406a.089.089,0,0,0-.07-.127.11.11,0,0,0-.085.016c-.255.2-.51.4-.76.605-1.07.882-2.168,1.728-3.308,2.518a29.252,29.252,0,0,1-2.857,1.767,18.337,18.337,0,0,1-1.679.791,11.546,11.546,0,0,1-1.94.6,5.642,5.642,0,0,1-1.672.1,1.668,1.668,0,0,1-.43-.1,3.75,3.75,0,0,1-1.746-1.3,4.612,4.612,0,0,1-.273-.453,1.248,1.248,0,0,1-.16-.592,4.584,4.584,0,0,1,.125-1.4.832.832,0,0,0,.048-.433.1.1,0,0,0-.043-.058.125.125,0,0,0-.086-.007.9.9,0,0,0-.279.208c-.479.437-.956.877-1.439,1.311-.659.591-1.334,1.162-2.042,1.695a10.318,10.318,0,0,1-1.174.788,4.043,4.043,0,0,1-.555.272,1.611,1.611,0,0,1-1.369-.077,2.142,2.142,0,0,1-.232-.127,4.28,4.28,0,0,1-1.307-1.418,1.447,1.447,0,0,1-.181-.675,2.854,2.854,0,0,1,.156-1.043c.127-.361.26-.72.387-1.08a.141.141,0,0,0-.046-.156c-.013-.01-.057.01-.082.024a.807.807,0,0,0-.148.094c-.133.117-.261.239-.392.357-.745.671-1.5,1.331-2.286,1.955a21.164,21.164,0,0,1-1.792,1.294,10.64,10.64,0,0,1-1,.561,4.36,4.36,0,0,1-.833.291,1.225,1.225,0,0,1-1.02-.156,3.542,3.542,0,0,1-1.37-1.69,1.785,1.785,0,0,1-.08-1.043,6.643,6.643,0,0,1,.361-1.181,14.158,14.158,0,0,1,.646-1.356,34.333,34.333,0,0,1,1.957-3.155q.729-1.055,1.525-2.062c.073-.092.142-.189.22-.277a.362.362,0,0,0,.04-.478c.021.025.036.056.061.068.066.032.072.024.012-.013-.024-.015-.045-.034-.068-.052" transform="translate(2170.196 604.904)" fill="#231f20"/>
      </g>
      <g id="g24">
        <path id="path26" d="M-986.441,0c.836.009,1.573.011,2.31.029.5.012,1,.044,1.5.069.383.019.766.043,1.148.061.53.025,1.06.051,1.587.121.234.031.47.037.705.059.381.036.763.076,1.144.115.147.015.293.036.439.049.852.076,1.7.191,2.545.317.583.086,1.169.158,1.75.252.757.122,1.513.247,2.265.392,1.013.2,2.022.405,3.025.649.888.216,1.769.458,2.636.746a10.3,10.3,0,0,1,1.391.565.616.616,0,0,1,.312.3.2.2,0,0,1,.012.17.438.438,0,0,1-.414.267,2.489,2.489,0,0,1-.26-.045c-1.06-.262-2.136-.437-3.212-.616-.989-.164-1.982-.3-2.974-.439-.671-.1-1.346-.163-2.02-.243l-.7-.084q-.351-.04-.7-.078l-1.144-.117c-.147-.015-.293-.033-.44-.043-.618-.04-1.234-.116-1.851-.152-1.53-.09-3.058-.231-4.593-.242-.708-.005-1.415-.036-2.123-.036-1.5,0-3.008.02-4.51.092-.8.038-1.591.089-2.382.174s-1.585.148-2.375.252c-.613.081-1.227.167-1.84.248q-.745.1-1.485.234c-1.073.195-2.144.4-3.208.638a53.06,53.06,0,0,0-9.908,3.209,33.866,33.866,0,0,0-3.692,1.9,23.278,23.278,0,0,0-2.268,1.538,13.648,13.648,0,0,0-1.576,1.419,6.321,6.321,0,0,0-1.086,1.5,3.917,3.917,0,0,0-.246.661,1.74,1.74,0,0,0,.154,1.284,2.353,2.353,0,0,0,.406.576,5.048,5.048,0,0,0,1.341,1,11.6,11.6,0,0,0,1.618.71c.25.089.5.172.75.263a.772.772,0,0,1,.148.1.181.181,0,0,1,.04.234.4.4,0,0,1-.21.149.753.753,0,0,1-.172.035,10.751,10.751,0,0,1-3.908-.622,6.767,6.767,0,0,1-1.2-.557,5.126,5.126,0,0,1-.856-.625,3.547,3.547,0,0,1-1.175-3.185,6.872,6.872,0,0,1,1.176-3.111,10.71,10.71,0,0,1,1.7-1.914,15.98,15.98,0,0,1,2.19-1.645,25.337,25.337,0,0,1,2.795-1.52,38.8,38.8,0,0,1,4.779-1.849,59.791,59.791,0,0,1,5.817-1.509c1.125-.236,2.257-.436,3.39-.631.581-.1,1.167-.171,1.75-.251q1.052-.143,2.1-.278c.2-.026.411-.04.616-.061l.88-.09c.088-.009.175-.026.263-.031,1.031-.058,2.056-.186,3.088-.229.766-.032,1.531-.086,2.3-.113.854-.031,1.71-.042,2.466-.06" transform="translate(1021.779)" fill="#231f20"/>
      </g>
      <g id="g36" transform="translate(36.275 11.533)">
        <path id="path38" d="M-82.686-.02a2.28,2.28,0,0,1,.859.271,4.2,4.2,0,0,1,1.534,1.431,1.458,1.458,0,0,1,.2.489.368.368,0,0,1-.077.329.208.208,0,0,1-.146.088.762.762,0,0,1-.175.014,1.228,1.228,0,0,0-.914.25c-.193.135-.386.271-.569.419a12.257,12.257,0,0,0-1.8,1.689,1.254,1.254,0,0,1-.187.187.778.778,0,0,1-.74.172,1.084,1.084,0,0,1-.457-.258,1.458,1.458,0,0,1-.439-1.45,5.051,5.051,0,0,1,.3-.922,8.091,8.091,0,0,1,.993-1.666,4.093,4.093,0,0,1,.6-.642,2.1,2.1,0,0,1,.523-.326,1.122,1.122,0,0,1,.5-.075" transform="translate(85.648 0.02)" fill="#231f20"/>
      </g>
    </g>
    <g id="bottom_line" data-name="bottom line" transform="translate(93.755 134.252)">
      <path id="path30" d="M-1887.738-25.493h-.354c-2.419.01-4.838.026-7.256.03-3.333.005-6.667,0-10,0q-14.2.007-28.409.014-8.407,0-16.815-.016c-1.593,0-3.185-.026-4.781-.04-.027-.025,0-.05.081-.061.117-.017.237-.016.351-.044a7.275,7.275,0,0,1,1.494-.152c1.061-.035,2.122-.079,3.182-.139.854-.048,1.71-.054,2.565-.081.442-.014.885-.024,1.327-.046,1.886-.094,3.774-.107,5.661-.153.943-.023,1.887-.053,2.83-.078.5-.013,1-.027,1.5-.032,1.3-.014,2.6-.022,3.894-.035,1.032-.01,2.065-.027,3.1-.034.885-.006,1.77,0,2.655-.006.324,0,.648-.018.972-.026.265-.006.531-.014.8-.014q3.407,0,6.815,0c.265,0,.531.008.8.015.324.008.648.023.973.025,1.445.009,2.891.008,4.336.021q3.1.027,6.194.069c.8.011,1.592.041,2.388.062.855.023,1.71.054,2.565.067,1.357.02,2.713.062,4.068.117,1.12.045,2.24.067,3.361.1.354.011.707.037,1.06.052q1.1.049,2.21.095c.295.012.589.021.884.033a5.219,5.219,0,0,1,1.053.119c.169.042.346.054.519.08l-.014.055" transform="translate(1955.364 26.406)" fill="#231f20"/>
    </g>
    <g id="digital" transform="translate(114.618 137.575)">
      <g id="g40" transform="translate(8.226)">
        <path id="path42" d="M-138.759-132.183q-.016.617-.032,1.235a.248.248,0,0,1-.156.193.315.315,0,0,1-.32-.082c-.079-.123-.152-.25-.227-.377a.182.182,0,0,0-.227-.058c-.091.074-.18.15-.27.226a1.864,1.864,0,0,1-1.219.443,2.563,2.563,0,0,1-.869-.128,1.942,1.942,0,0,1-.977-.724,3.526,3.526,0,0,1-.646-1.716,5.845,5.845,0,0,1,0-1.147,3.276,3.276,0,0,1,.67-1.7,2.211,2.211,0,0,1,1.229-.81,2.568,2.568,0,0,1,1.562.073,1.856,1.856,0,0,1,.6.36,2.333,2.333,0,0,1,.686,1.011.358.358,0,0,1-.009.256.126.126,0,0,1-.057.066,1.77,1.77,0,0,1-.6.123.21.21,0,0,1-.155-.064,3.219,3.219,0,0,1-.188-.3,2.789,2.789,0,0,0-.194-.293.987.987,0,0,0-.509-.333,1.506,1.506,0,0,0-.7-.043,1.313,1.313,0,0,0-.855.576,1.531,1.531,0,0,0-.226.477,4.037,4.037,0,0,0-.136,1.487,7.331,7.331,0,0,0,.133.783,2.174,2.174,0,0,0,.155.411,1.286,1.286,0,0,0,1.639.643,1.288,1.288,0,0,0,.814-1.066.236.236,0,0,0-.038-.165.257.257,0,0,0-.153-.077c-.116-.018-.234-.021-.351-.028-.147-.009-.294-.015-.44-.024a.28.28,0,0,1-.221-.24,1.126,1.126,0,0,1,.016-.438.171.171,0,0,1,.113-.121.551.551,0,0,1,.168-.041q.8-.006,1.59,0a1.527,1.527,0,0,1,.173.03.325.325,0,0,1,.182.173c.009.117.026.234.027.352,0,.353,0,.707,0,1.06h.01" transform="translate(143.73 136.919)" fill="#231f20"/>
      </g>
      <g id="g44" transform="translate(20.855 0.112)">
        <path id="path46" d="M-66.941-105.415c.215-.011.478-.024.741-.04a.176.176,0,0,0,.134-.191c-.191-.707-.428-1.4-.673-2.089a.114.114,0,0,0-.133-.08.148.148,0,0,0-.136.093q-.306.916-.606,1.835a2.447,2.447,0,0,0-.054.256.208.208,0,0,0,.152.186l.575.03m2.133,2.319c.017,0-.1-.009-.215-.028a.267.267,0,0,1-.206-.15c-.1-.245-.175-.5-.269-.747-.052-.137-.121-.267-.184-.4a.173.173,0,0,0-.139-.1,1.182,1.182,0,0,0-.173-.027q-.883,0-1.767,0a.645.645,0,0,0-.17.039.215.215,0,0,0-.132.11,4.461,4.461,0,0,0-.25.659c-.058.166-.123.331-.2.491a.231.231,0,0,1-.134.105.864.864,0,0,1-.6-.011.14.14,0,0,1-.092-.135,1.054,1.054,0,0,1,.035-.26q.425-1.3.859-2.6t.864-2.6a1.152,1.152,0,0,1,.148-.318.2.2,0,0,1,.138-.1,2.838,2.838,0,0,1,.349-.036c.235,0,.471.008.705.025a.228.228,0,0,1,.207.139c.065.164.135.327.191.494q.789,2.342,1.574,4.686c.047.14.087.281.129.422.062.206-.029.319-.269.329-.088,0-.177,0-.4,0" transform="translate(69.339 109.192)" fill="#231f20"/>
      </g>
      <g id="g48" transform="translate(16.243 0.116)">
        <path id="path50" d="M-45.238-96.876c0-.619,0-1.237,0-1.856,0-.147-.014-.293-.024-.44a.277.277,0,0,0-.219-.239c-.324-.012-.647-.018-.971-.033a.8.8,0,0,1-.256-.05.214.214,0,0,1-.112-.124,1.147,1.147,0,0,1-.012-.525.3.3,0,0,1,.173-.178,1.34,1.34,0,0,1,.174-.026q1.857,0,3.713,0a.409.409,0,0,1,.172.033.242.242,0,0,1,.126.113,1.016,1.016,0,0,1,0,.609.191.191,0,0,1-.125.114c-.174.024-.351.03-.527.039a4.155,4.155,0,0,0-.7.033.293.293,0,0,0-.178.175c-.014.146-.036.292-.036.438,0,.943,0,1.885,0,2.828,0,.471-.009.942-.016,1.413a.311.311,0,0,1-.279.287,2.742,2.742,0,0,1-.617,0,.337.337,0,0,1-.261-.311c0-.088-.012-.176-.012-.265,0-.442,0-.884,0-1.326q0-.354,0-.707Z" transform="translate(46.858 100.347)" fill="#231f20"/>
      </g>
      <g id="g52" transform="translate(26.923 0.106)">
        <path id="path54" d="M-.034-84.41c0-.793,0-1.586,0-2.379,0-.146.022-.291.036-.437a.284.284,0,0,1,.18-.173,1.722,1.722,0,0,1,.783.021.2.2,0,0,1,.112.121,1.482,1.482,0,0,1,.043.346c0,.94,0,1.88,0,2.819,0,.441,0,.881,0,1.322a2.332,2.332,0,0,0,.034.261.3.3,0,0,0,.174.179c.117.012.233.032.35.033.5,0,1,0,1.5.006.117,0,.233.02.349.032a.261.261,0,0,1,.183.167,3.482,3.482,0,0,1,.025.35c0,.263-.117.394-.349.407-.059,0-.117.01-.176.01q-1.366,0-2.732,0c-.088,0-.175-.015-.263-.024a.371.371,0,0,1-.23-.24c-.011-.176-.026-.351-.027-.527,0-.764,0-1.527,0-2.291Z" transform="translate(0.035 87.434)" fill="#231f20"/>
      </g>
      <g id="g56" transform="translate(6.086 0.108)">
        <path id="path58" d="M-.029-83.176q0-1.192,0-2.385A1.153,1.153,0,0,1,.022-86a.21.21,0,0,1,.121-.117,1.569,1.569,0,0,1,.7-.007c.056.013.181.12.185.17.009.088.025.175.025.263q0,2.561,0,5.123c0,.088-.014.176-.021.264a.363.363,0,0,1-.242.226,1.594,1.594,0,0,1-.613-.013A.327.327,0,0,1,0-80.263c-.012-.146-.031-.293-.032-.439,0-.824,0-1.649,0-2.473Z" transform="translate(0.03 86.156)" fill="#231f20"/>
      </g>
      <g id="g60" transform="translate(14.465 0.109)">
        <path id="path62" d="M-30.045-85.12c0,.795,0,1.59,0,2.385,0,.147-.016.294-.025.44a.292.292,0,0,1-.163.188,1.34,1.34,0,0,1-.7,0A.344.344,0,0,1-31.1-82.3c-.008-.088-.022-.176-.022-.264q0-2.562,0-5.123c0-.088.015-.176.022-.263a.3.3,0,0,1,.166-.185,1.709,1.709,0,0,1,.7,0,.271.271,0,0,1,.16.189c.01.147.025.293.025.44,0,.795,0,1.59,0,2.385" transform="translate(31.121 88.169)" fill="#231f20"/>
      </g>
      <g id="g32" transform="translate(0 0.116)">
        <path id="path34" d="M-31.981-84.278h0c0,.558,0,1.116,0,1.674a1.409,1.409,0,0,0,.048.344.189.189,0,0,0,.116.118,3.029,3.029,0,0,0,1.309-.035.473.473,0,0,0,.084-.028,1.736,1.736,0,0,0,.882-.827,2.2,2.2,0,0,0,.238-.842c.011-.205.013-.411.013-.616a2.359,2.359,0,0,0-.256-1.017,1.826,1.826,0,0,0-.349-.505,1.3,1.3,0,0,0-.851-.416c-.059,0-.117-.011-.176-.011-.235,0-.47,0-.7,0s-.337.109-.345.307c-.006.147-.012.293-.012.44,0,.47,0,.94,0,1.41m-1.145.036c0-.8,0-1.592,0-2.387,0-.147.017-.294.028-.44a.342.342,0,0,1,.248-.218c.029,0,.059-.008.088-.008.708,0,1.415,0,2.123,0a2.194,2.194,0,0,1,.693.123,2.653,2.653,0,0,1,1.485,1.316,3.213,3.213,0,0,1,.339,1.093,3.41,3.41,0,0,1-.361,2.142,2.64,2.64,0,0,1-.6.758,2.516,2.516,0,0,1-1.263.6,3.382,3.382,0,0,1-.351.042,18.826,18.826,0,0,1-2.121.006.739.739,0,0,1-.084-.024.338.338,0,0,1-.185-.175c-.014-.146-.035-.292-.036-.438,0-.8,0-1.592,0-2.387Z" transform="translate(33.127 87.297)" fill="#231f20"/>
      </g>
    </g>
  </g>
</svg>
